0
SECTION
2
HEADER
9
$INSUNITS
70
4
0
ENDSEC
0
SECTION
2
TABLES
0
TABLE
2
LTYPE
0
LTYPE
72
65
70
64
2
CONTINUOUS
3
______
73
0
40
0
0
ENDTAB
0
TABLE
2
LAYER
0
ENDTAB
0
ENDSEC
0
SECTION
2
ENTITIES
0
LINE
8
0
10
17.75
20
-129.25
11
36.25
21
-129.25
0
LINE
8
0
10
36.25
20
-129.25
11
36.25
21
-110.75
0
LINE
8
0
10
36.25
20
-110.75
11
17.75
21
-110.75
0
LINE
8
0
10
17.75
20
-110.75
11
17.75
21
-129.25
0
LINE
8
0
10
17.75
20
-110.2
11
36.25
21
-110.2
0
LINE
8
0
10
36.25
20
-110.2
11
36.25
21
-91.7
0
LINE
8
0
10
36.25
20
-91.7
11
17.75
21
-91.7
0
LINE
8
0
10
17.75
20
-91.7
11
17.75
21
-110.2
0
LINE
8
0
10
17.75
20
-91.15
11
36.25
21
-91.15
0
LINE
8
0
10
36.25
20
-91.15
11
36.25
21
-72.65
0
LINE
8
0
10
36.25
20
-72.65
11
17.75
21
-72.65
0
LINE
8
0
10
17.75
20
-72.65
11
17.75
21
-91.15
0
LINE
8
0
10
17.75
20
-72.1
11
36.25
21
-72.1
0
LINE
8
0
10
36.25
20
-72.1
11
36.25
21
-53.6
0
LINE
8
0
10
36.25
20
-53.6
11
17.75
21
-53.6
0
LINE
8
0
10
17.75
20
-53.6
11
17.75
21
-72.1
0
LINE
8
0
10
17.75
20
-53.05
11
36.25
21
-53.05
0
LINE
8
0
10
36.25
20
-53.05
11
36.25
21
-34.55
0
LINE
8
0
10
36.25
20
-34.55
11
17.75
21
-34.55
0
LINE
8
0
10
17.75
20
-34.55
11
17.75
21
-53.05
0
LINE
8
0
10
36.75
20
-129.25
11
55.25
21
-129.25
0
LINE
8
0
10
55.25
20
-129.25
11
55.25
21
-110.75
0
LINE
8
0
10
55.25
20
-110.75
11
36.75
21
-110.75
0
LINE
8
0
10
36.75
20
-110.75
11
36.75
21
-129.25
0
LINE
8
0
10
36.75
20
-110.2
11
55.25
21
-110.2
0
LINE
8
0
10
55.25
20
-110.2
11
55.25
21
-91.7
0
LINE
8
0
10
55.25
20
-91.7
11
36.75
21
-91.7
0
LINE
8
0
10
36.75
20
-91.7
11
36.75
21
-110.2
0
LINE
8
0
10
36.75
20
-91.15
11
55.25
21
-91.15
0
LINE
8
0
10
55.25
20
-91.15
11
55.25
21
-72.65
0
LINE
8
0
10
55.25
20
-72.65
11
36.75
21
-72.65
0
LINE
8
0
10
36.75
20
-72.65
11
36.75
21
-91.15
0
LINE
8
0
10
36.75
20
-72.1
11
55.25
21
-72.1
0
LINE
8
0
10
55.25
20
-72.1
11
55.25
21
-53.6
0
LINE
8
0
10
55.25
20
-53.6
11
36.75
21
-53.6
0
LINE
8
0
10
36.75
20
-53.6
11
36.75
21
-72.1
0
LINE
8
0
10
36.75
20
-53.05
11
55.25
21
-53.05
0
LINE
8
0
10
55.25
20
-53.05
11
55.25
21
-34.55
0
LINE
8
0
10
55.25
20
-34.55
11
36.75
21
-34.55
0
LINE
8
0
10
36.75
20
-34.55
11
36.75
21
-53.05
0
LINE
8
0
10
55.75
20
-116.677
11
74.25
21
-116.677
0
LINE
8
0
10
74.25
20
-116.677
11
74.25
21
-98.177
0
LINE
8
0
10
74.25
20
-98.177
11
55.75
21
-98.177
0
LINE
8
0
10
55.75
20
-98.177
11
55.75
21
-116.677
0
LINE
8
0
10
55.75
20
-97.627
11
74.25
21
-97.627
0
LINE
8
0
10
74.25
20
-97.627
11
74.25
21
-79.127
0
LINE
8
0
10
74.25
20
-79.127
11
55.75
21
-79.127
0
LINE
8
0
10
55.75
20
-79.127
11
55.75
21
-97.627
0
LINE
8
0
10
55.75
20
-78.577
11
74.25
21
-78.577
0
LINE
8
0
10
74.25
20
-78.577
11
74.25
21
-60.077
0
LINE
8
0
10
74.25
20
-60.077
11
55.75
21
-60.077
0
LINE
8
0
10
55.75
20
-60.077
11
55.75
21
-78.577
0
LINE
8
0
10
55.75
20
-59.527
11
74.25
21
-59.527
0
LINE
8
0
10
74.25
20
-59.527
11
74.25
21
-41.027
0
LINE
8
0
10
74.25
20
-41.027
11
55.75
21
-41.027
0
LINE
8
0
10
55.75
20
-41.027
11
55.75
21
-59.527
0
LINE
8
0
10
55.75
20
-40.477
11
74.25
21
-40.477
0
LINE
8
0
10
74.25
20
-40.477
11
74.25
21
-21.977
0
LINE
8
0
10
74.25
20
-21.977
11
55.75
21
-21.977
0
LINE
8
0
10
55.75
20
-21.977
11
55.75
21
-40.477
0
LINE
8
0
10
74.75
20
-111.9145
11
93.25
21
-111.9145
0
LINE
8
0
10
93.25
20
-111.9145
11
93.25
21
-93.4145
0
LINE
8
0
10
93.25
20
-93.4145
11
74.75
21
-93.4145
0
LINE
8
0
10
74.75
20
-93.4145
11
74.75
21
-111.9145
0
LINE
8
0
10
74.75
20
-92.8645
11
93.25
21
-92.8645
0
LINE
8
0
10
93.25
20
-92.8645
11
93.25
21
-74.3645
0
LINE
8
0
10
93.25
20
-74.3645
11
74.75
21
-74.3645
0
LINE
8
0
10
74.75
20
-74.3645
11
74.75
21
-92.8645
0
LINE
8
0
10
74.75
20
-73.8145
11
93.25
21
-73.8145
0
LINE
8
0
10
93.25
20
-73.8145
11
93.25
21
-55.3145
0
LINE
8
0
10
93.25
20
-55.3145
11
74.75
21
-55.3145
0
LINE
8
0
10
74.75
20
-55.3145
11
74.75
21
-73.8145
0
LINE
8
0
10
74.75
20
-54.7645
11
93.25
21
-54.7645
0
LINE
8
0
10
93.25
20
-54.7645
11
93.25
21
-36.2645
0
LINE
8
0
10
93.25
20
-36.2645
11
74.75
21
-36.2645
0
LINE
8
0
10
74.75
20
-36.2645
11
74.75
21
-54.7645
0
LINE
8
0
10
74.75
20
-35.7145
11
93.25
21
-35.7145
0
LINE
8
0
10
93.25
20
-35.7145
11
93.25
21
-17.2145
0
LINE
8
0
10
93.25
20
-17.2145
11
74.75
21
-17.2145
0
LINE
8
0
10
74.75
20
-17.2145
11
74.75
21
-35.7145
0
LINE
8
0
10
93.75
20
-116.677
11
112.25
21
-116.677
0
LINE
8
0
10
112.25
20
-116.677
11
112.25
21
-98.177
0
LINE
8
0
10
112.25
20
-98.177
11
93.75
21
-98.177
0
LINE
8
0
10
93.75
20
-98.177
11
93.75
21
-116.677
0
LINE
8
0
10
93.75
20
-97.627
11
112.25
21
-97.627
0
LINE
8
0
10
112.25
20
-97.627
11
112.25
21
-79.127
0
LINE
8
0
10
112.25
20
-79.127
11
93.75
21
-79.127
0
LINE
8
0
10
93.75
20
-79.127
11
93.75
21
-97.627
0
LINE
8
0
10
93.75
20
-78.577
11
112.25
21
-78.577
0
LINE
8
0
10
112.25
20
-78.577
11
112.25
21
-60.077
0
LINE
8
0
10
112.25
20
-60.077
11
93.75
21
-60.077
0
LINE
8
0
10
93.75
20
-60.077
11
93.75
21
-78.577
0
LINE
8
0
10
93.75
20
-59.527
11
112.25
21
-59.527
0
LINE
8
0
10
112.25
20
-59.527
11
112.25
21
-41.027
0
LINE
8
0
10
112.25
20
-41.027
11
93.75
21
-41.027
0
LINE
8
0
10
93.75
20
-41.027
11
93.75
21
-59.527
0
LINE
8
0
10
93.75
20
-40.477
11
112.25
21
-40.477
0
LINE
8
0
10
112.25
20
-40.477
11
112.25
21
-21.977
0
LINE
8
0
10
112.25
20
-21.977
11
93.75
21
-21.977
0
LINE
8
0
10
93.75
20
-21.977
11
93.75
21
-40.477
0
LINE
8
0
10
112.75
20
-119.5345
11
131.25
21
-119.5345
0
LINE
8
0
10
131.25
20
-119.5345
11
131.25
21
-101.0345
0
LINE
8
0
10
131.25
20
-101.0345
11
112.75
21
-101.0345
0
LINE
8
0
10
112.75
20
-101.0345
11
112.75
21
-119.5345
0
LINE
8
0
10
112.75
20
-100.4845
11
131.25
21
-100.4845
0
LINE
8
0
10
131.25
20
-100.4845
11
131.25
21
-81.9845
0
LINE
8
0
10
131.25
20
-81.9845
11
112.75
21
-81.9845
0
LINE
8
0
10
112.75
20
-81.9845
11
112.75
21
-100.4845
0
LINE
8
0
10
112.75
20
-81.4345
11
131.25
21
-81.4345
0
LINE
8
0
10
131.25
20
-81.4345
11
131.25
21
-62.9345
0
LINE
8
0
10
131.25
20
-62.9345
11
112.75
21
-62.9345
0
LINE
8
0
10
112.75
20
-62.9345
11
112.75
21
-81.4345
0
LINE
8
0
10
112.75
20
-62.3845
11
131.25
21
-62.3845
0
LINE
8
0
10
131.25
20
-62.3845
11
131.25
21
-43.8845
0
LINE
8
0
10
131.25
20
-43.8845
11
112.75
21
-43.8845
0
LINE
8
0
10
112.75
20
-43.8845
11
112.75
21
-62.3845
0
LINE
8
0
10
112.75
20
-43.3345
11
131.25
21
-43.3345
0
LINE
8
0
10
131.25
20
-43.3345
11
131.25
21
-24.8345
0
LINE
8
0
10
131.25
20
-24.8345
11
112.75
21
-24.8345
0
LINE
8
0
10
112.75
20
-24.8345
11
112.75
21
-43.3345
0
LINE
8
0
10
90.3792826
20
-137.7902261
11
108.5982261
21
-141.0027174
0
LINE
8
0
10
108.5982261
20
-141.0027174
11
111.8107174
21
-122.7837739
0
LINE
8
0
10
111.8107174
20
-122.7837739
11
93.5917739
21
-119.5712826
0
LINE
8
0
10
93.5917739
20
-119.5712826
11
90.3792826
21
-137.7902261
0
LINE
8
0
10
109.1867496
20
-141.1882781
11
125.9534437
21
-149.006716
0
LINE
8
0
10
125.9534437
20
-149.006716
11
133.7718816
21
-132.2400219
0
LINE
8
0
10
133.7718816
20
-132.2400219
11
117.0051875
21
-124.421584
0
LINE
8
0
10
117.0051875
20
-124.421584
11
109.1867496
21
-141.1882781
0
LINE
8
0
10
126.4738871
20
-149.338275
11
140.6457093
21
-161.2298458
0
LINE
8
0
10
140.6457093
20
-161.2298458
11
152.5372801
21
-147.0580236
0
LINE
8
0
10
152.5372801
20
-147.0580236
11
138.3654579
21
-135.1664528
0
LINE
8
0
10
138.3654579
20
-135.1664528
11
126.4738871
21
-149.338275
0
LINE
8
0
10
290.75
20
-129.25
11
309.25
21
-129.25
0
LINE
8
0
10
309.25
20
-129.25
11
309.25
21
-110.75
0
LINE
8
0
10
309.25
20
-110.75
11
290.75
21
-110.75
0
LINE
8
0
10
290.75
20
-110.75
11
290.75
21
-129.25
0
LINE
8
0
10
290.75
20
-110.2
11
309.25
21
-110.2
0
LINE
8
0
10
309.25
20
-110.2
11
309.25
21
-91.7
0
LINE
8
0
10
309.25
20
-91.7
11
290.75
21
-91.7
0
LINE
8
0
10
290.75
20
-91.7
11
290.75
21
-110.2
0
LINE
8
0
10
290.75
20
-91.15
11
309.25
21
-91.15
0
LINE
8
0
10
309.25
20
-91.15
11
309.25
21
-72.65
0
LINE
8
0
10
309.25
20
-72.65
11
290.75
21
-72.65
0
LINE
8
0
10
290.75
20
-72.65
11
290.75
21
-91.15
0
LINE
8
0
10
290.75
20
-72.1
11
309.25
21
-72.1
0
LINE
8
0
10
309.25
20
-72.1
11
309.25
21
-53.6
0
LINE
8
0
10
309.25
20
-53.6
11
290.75
21
-53.6
0
LINE
8
0
10
290.75
20
-53.6
11
290.75
21
-72.1
0
LINE
8
0
10
290.75
20
-53.05
11
309.25
21
-53.05
0
LINE
8
0
10
309.25
20
-53.05
11
309.25
21
-34.55
0
LINE
8
0
10
309.25
20
-34.55
11
290.75
21
-34.55
0
LINE
8
0
10
290.75
20
-34.55
11
290.75
21
-53.05
0
LINE
8
0
10
271.75
20
-129.25
11
290.25
21
-129.25
0
LINE
8
0
10
290.25
20
-129.25
11
290.25
21
-110.75
0
LINE
8
0
10
290.25
20
-110.75
11
271.75
21
-110.75
0
LINE
8
0
10
271.75
20
-110.75
11
271.75
21
-129.25
0
LINE
8
0
10
271.75
20
-110.2
11
290.25
21
-110.2
0
LINE
8
0
10
290.25
20
-110.2
11
290.25
21
-91.7
0
LINE
8
0
10
290.25
20
-91.7
11
271.75
21
-91.7
0
LINE
8
0
10
271.75
20
-91.7
11
271.75
21
-110.2
0
LINE
8
0
10
271.75
20
-91.15
11
290.25
21
-91.15
0
LINE
8
0
10
290.25
20
-91.15
11
290.25
21
-72.65
0
LINE
8
0
10
290.25
20
-72.65
11
271.75
21
-72.65
0
LINE
8
0
10
271.75
20
-72.65
11
271.75
21
-91.15
0
LINE
8
0
10
271.75
20
-72.1
11
290.25
21
-72.1
0
LINE
8
0
10
290.25
20
-72.1
11
290.25
21
-53.6
0
LINE
8
0
10
290.25
20
-53.6
11
271.75
21
-53.6
0
LINE
8
0
10
271.75
20
-53.6
11
271.75
21
-72.1
0
LINE
8
0
10
271.75
20
-53.05
11
290.25
21
-53.05
0
LINE
8
0
10
290.25
20
-53.05
11
290.25
21
-34.55
0
LINE
8
0
10
290.25
20
-34.55
11
271.75
21
-34.55
0
LINE
8
0
10
271.75
20
-34.55
11
271.75
21
-53.05
0
LINE
8
0
10
252.75
20
-116.677
11
271.25
21
-116.677
0
LINE
8
0
10
271.25
20
-116.677
11
271.25
21
-98.177
0
LINE
8
0
10
271.25
20
-98.177
11
252.75
21
-98.177
0
LINE
8
0
10
252.75
20
-98.177
11
252.75
21
-116.677
0
LINE
8
0
10
252.75
20
-97.627
11
271.25
21
-97.627
0
LINE
8
0
10
271.25
20
-97.627
11
271.25
21
-79.127
0
LINE
8
0
10
271.25
20
-79.127
11
252.75
21
-79.127
0
LINE
8
0
10
252.75
20
-79.127
11
252.75
21
-97.627
0
LINE
8
0
10
252.75
20
-78.577
11
271.25
21
-78.577
0
LINE
8
0
10
271.25
20
-78.577
11
271.25
21
-60.077
0
LINE
8
0
10
271.25
20
-60.077
11
252.75
21
-60.077
0
LINE
8
0
10
252.75
20
-60.077
11
252.75
21
-78.577
0
LINE
8
0
10
252.75
20
-59.527
11
271.25
21
-59.527
0
LINE
8
0
10
271.25
20
-59.527
11
271.25
21
-41.027
0
LINE
8
0
10
271.25
20
-41.027
11
252.75
21
-41.027
0
LINE
8
0
10
252.75
20
-41.027
11
252.75
21
-59.527
0
LINE
8
0
10
252.75
20
-40.477
11
271.25
21
-40.477
0
LINE
8
0
10
271.25
20
-40.477
11
271.25
21
-21.977
0
LINE
8
0
10
271.25
20
-21.977
11
252.75
21
-21.977
0
LINE
8
0
10
252.75
20
-21.977
11
252.75
21
-40.477
0
LINE
8
0
10
233.75
20
-111.9145
11
252.25
21
-111.9145
0
LINE
8
0
10
252.25
20
-111.9145
11
252.25
21
-93.4145
0
LINE
8
0
10
252.25
20
-93.4145
11
233.75
21
-93.4145
0
LINE
8
0
10
233.75
20
-93.4145
11
233.75
21
-111.9145
0
LINE
8
0
10
233.75
20
-92.8645
11
252.25
21
-92.8645
0
LINE
8
0
10
252.25
20
-92.8645
11
252.25
21
-74.3645
0
LINE
8
0
10
252.25
20
-74.3645
11
233.75
21
-74.3645
0
LINE
8
0
10
233.75
20
-74.3645
11
233.75
21
-92.8645
0
LINE
8
0
10
233.75
20
-73.8145
11
252.25
21
-73.8145
0
LINE
8
0
10
252.25
20
-73.8145
11
252.25
21
-55.3145
0
LINE
8
0
10
252.25
20
-55.3145
11
233.75
21
-55.3145
0
LINE
8
0
10
233.75
20
-55.3145
11
233.75
21
-73.8145
0
LINE
8
0
10
233.75
20
-54.7645
11
252.25
21
-54.7645
0
LINE
8
0
10
252.25
20
-54.7645
11
252.25
21
-36.2645
0
LINE
8
0
10
252.25
20
-36.2645
11
233.75
21
-36.2645
0
LINE
8
0
10
233.75
20
-36.2645
11
233.75
21
-54.7645
0
LINE
8
0
10
233.75
20
-35.7145
11
252.25
21
-35.7145
0
LINE
8
0
10
252.25
20
-35.7145
11
252.25
21
-17.2145
0
LINE
8
0
10
252.25
20
-17.2145
11
233.75
21
-17.2145
0
LINE
8
0
10
233.75
20
-17.2145
11
233.75
21
-35.7145
0
LINE
8
0
10
214.75
20
-116.677
11
233.25
21
-116.677
0
LINE
8
0
10
233.25
20
-116.677
11
233.25
21
-98.177
0
LINE
8
0
10
233.25
20
-98.177
11
214.75
21
-98.177
0
LINE
8
0
10
214.75
20
-98.177
11
214.75
21
-116.677
0
LINE
8
0
10
214.75
20
-97.627
11
233.25
21
-97.627
0
LINE
8
0
10
233.25
20
-97.627
11
233.25
21
-79.127
0
LINE
8
0
10
233.25
20
-79.127
11
214.75
21
-79.127
0
LINE
8
0
10
214.75
20
-79.127
11
214.75
21
-97.627
0
LINE
8
0
10
214.75
20
-78.577
11
233.25
21
-78.577
0
LINE
8
0
10
233.25
20
-78.577
11
233.25
21
-60.077
0
LINE
8
0
10
233.25
20
-60.077
11
214.75
21
-60.077
0
LINE
8
0
10
214.75
20
-60.077
11
214.75
21
-78.577
0
LINE
8
0
10
214.75
20
-59.527
11
233.25
21
-59.527
0
LINE
8
0
10
233.25
20
-59.527
11
233.25
21
-41.027
0
LINE
8
0
10
233.25
20
-41.027
11
214.75
21
-41.027
0
LINE
8
0
10
214.75
20
-41.027
11
214.75
21
-59.527
0
LINE
8
0
10
214.75
20
-40.477
11
233.25
21
-40.477
0
LINE
8
0
10
233.25
20
-40.477
11
233.25
21
-21.977
0
LINE
8
0
10
233.25
20
-21.977
11
214.75
21
-21.977
0
LINE
8
0
10
214.75
20
-21.977
11
214.75
21
-40.477
0
LINE
8
0
10
195.75
20
-119.5345
11
214.25
21
-119.5345
0
LINE
8
0
10
214.25
20
-119.5345
11
214.25
21
-101.0345
0
LINE
8
0
10
214.25
20
-101.0345
11
195.75
21
-101.0345
0
LINE
8
0
10
195.75
20
-101.0345
11
195.75
21
-119.5345
0
LINE
8
0
10
195.75
20
-100.4845
11
214.25
21
-100.4845
0
LINE
8
0
10
214.25
20
-100.4845
11
214.25
21
-81.9845
0
LINE
8
0
10
214.25
20
-81.9845
11
195.75
21
-81.9845
0
LINE
8
0
10
195.75
20
-81.9845
11
195.75
21
-100.4845
0
LINE
8
0
10
195.75
20
-81.4345
11
214.25
21
-81.4345
0
LINE
8
0
10
214.25
20
-81.4345
11
214.25
21
-62.9345
0
LINE
8
0
10
214.25
20
-62.9345
11
195.75
21
-62.9345
0
LINE
8
0
10
195.75
20
-62.9345
11
195.75
21
-81.4345
0
LINE
8
0
10
195.75
20
-62.3845
11
214.25
21
-62.3845
0
LINE
8
0
10
214.25
20
-62.3845
11
214.25
21
-43.8845
0
LINE
8
0
10
214.25
20
-43.8845
11
195.75
21
-43.8845
0
LINE
8
0
10
195.75
20
-43.8845
11
195.75
21
-62.3845
0
LINE
8
0
10
195.75
20
-43.3345
11
214.25
21
-43.3345
0
LINE
8
0
10
214.25
20
-43.3345
11
214.25
21
-24.8345
0
LINE
8
0
10
214.25
20
-24.8345
11
195.75
21
-24.8345
0
LINE
8
0
10
195.75
20
-24.8345
11
195.75
21
-43.3345
0
LINE
8
0
10
218.4017739
20
-141.0027174
11
236.6207174
21
-137.7902261
0
LINE
8
0
10
236.6207174
20
-137.7902261
11
233.4082261
21
-119.5712826
0
LINE
8
0
10
233.4082261
20
-119.5712826
11
215.1892826
21
-122.7837739
0
LINE
8
0
10
215.1892826
20
-122.7837739
11
218.4017739
21
-141.0027174
0
LINE
8
0
10
201.0465563
20
-149.006716
11
217.8132504
21
-141.1882781
0
LINE
8
0
10
217.8132504
20
-141.1882781
11
209.9948125
21
-124.421584
0
LINE
8
0
10
209.9948125
20
-124.421584
11
193.2281184
21
-132.2400219
0
LINE
8
0
10
193.2281184
20
-132.2400219
11
201.0465563
21
-149.006716
0
LINE
8
0
10
186.3542907
20
-161.2298458
11
200.5261129
21
-149.338275
0
LINE
8
0
10
200.5261129
20
-149.338275
11
188.6345421
21
-135.1664528
0
LINE
8
0
10
188.6345421
20
-135.1664528
11
174.4627199
21
-147.0580236
0
LINE
8
0
10
174.4627199
20
-147.0580236
11
186.3542907
21
-161.2298458
0
ENDSEC
0
EOF
