0
SECTION
2
HEADER
9
$INSUNITS
70
4
0
ENDSEC
0
SECTION
2
TABLES
0
TABLE
2
LTYPE
0
LTYPE
72
65
70
64
2
CONTINUOUS
3
______
73
0
40
0
0
ENDTAB
0
TABLE
2
LAYER
0
ENDTAB
0
ENDSEC
0
SECTION
2
ENTITIES
0
LINE
8
0
10
16.5
20
-130.5
11
56.5
21
-130.5
0
LINE
8
0
10
16.5
20
-130.5
11
16.5
21
-33.3
0
LINE
8
0
10
16.5
20
-33.3
11
54.5
21
-33.3
0
LINE
8
0
10
56.5
20
-130.5
11
56.5
21
-117.927
0
LINE
8
0
10
56.5
20
-117.927
11
75.5
21
-117.927
0
LINE
8
0
10
75.5
20
-117.927
11
75.5
21
-113.1645
0
LINE
8
0
10
73.5
20
-20.727
11
54.5
21
-20.727
0
LINE
8
0
10
54.5
20
-20.727
11
54.5
21
-33.3
0
LINE
8
0
10
75.5
20
-113.1645
11
92.5
21
-113.1645
0
LINE
8
0
10
94.5
20
-20.727
11
94.5
21
-15.9645
0
LINE
8
0
10
94.5
20
-15.9645
11
73.5
21
-15.9645
0
LINE
8
0
10
73.5
20
-15.9645
11
73.5
21
-20.727
0
LINE
8
0
10
92.5
20
-117.927
11
111.5
21
-117.927
0
LINE
8
0
10
92.5
20
-113.1645
11
92.5
21
-117.927
0
LINE
8
0
10
113.5
20
-23.5845
11
113.5
21
-20.727
0
LINE
8
0
10
113.5
20
-20.727
11
94.5
21
-20.727
0
LINE
8
0
10
111.5
20
-120.7845
11
132.5
21
-120.7845
0
LINE
8
0
10
132.5
20
-120.7845
11
132.5
21
-23.5845
0
LINE
8
0
10
111.5
20
-117.927
11
111.5
21
-120.7845
0
LINE
8
0
10
132.5
20
-23.5845
11
113.5
21
-23.5845
0
LINE
8
0
10
88.9312127
20
-138.8041755
11
108.5255772
21
-142.2591907
0
LINE
8
0
10
111.0674966
20
-134.1972513
11
113.2587873
21
-121.7698245
0
LINE
8
0
10
113.2587873
20
-121.7698245
11
92.5778245
21
-118.1232127
0
LINE
8
0
10
92.5778245
20
-118.1232127
11
88.9312127
21
-138.8041755
0
LINE
8
0
10
108.5255772
20
-142.2591907
11
125.5580704
21
-150.2015727
0
LINE
8
0
10
130.0999602
20
-143.0722345
11
135.4330391
21
-131.63541
0
LINE
8
0
10
135.4330391
20
-131.63541
11
116.4005756
21
-122.7604265
0
LINE
8
0
10
116.4005756
20
-122.7604265
11
111.0674966
21
-134.1972513
0
LINE
8
0
10
125.5580704
20
-150.2015727
11
140.7997804
21
-162.9908859
0
LINE
8
0
10
140.7997804
20
-162.9908859
11
154.2983202
21
-146.9039525
0
LINE
8
0
10
154.2983202
20
-146.9039525
11
138.2113868
21
-133.4054127
0
LINE
8
0
10
138.2113868
20
-133.4054127
11
130.0999602
21
-143.0722345
0
LINE
8
0
10
270.5
20
-130.5
11
310.5
21
-130.5
0
LINE
8
0
10
310.5
20
-130.5
11
310.5
21
-33.3
0
LINE
8
0
10
272.5
20
-33.3
11
310.5
21
-33.3
0
LINE
8
0
10
270.5
20
-117.927
11
270.5
21
-130.5
0
LINE
8
0
10
251.5
20
-117.927
11
270.5
21
-117.927
0
LINE
8
0
10
251.5
20
-113.1645
11
251.5
21
-117.927
0
LINE
8
0
10
272.5
20
-33.3
11
272.5
21
-20.727
0
LINE
8
0
10
272.5
20
-20.727
11
253.5
21
-20.727
0
LINE
8
0
10
234.5
20
-113.1645
11
251.5
21
-113.1645
0
LINE
8
0
10
253.5
20
-20.727
11
253.5
21
-15.9645
0
LINE
8
0
10
253.5
20
-15.9645
11
232.5
21
-15.9645
0
LINE
8
0
10
232.5
20
-15.9645
11
232.5
21
-20.727
0
LINE
8
0
10
215.5
20
-117.927
11
234.5
21
-117.927
0
LINE
8
0
10
234.5
20
-117.927
11
234.5
21
-113.1645
0
LINE
8
0
10
232.5
20
-20.727
11
213.5
21
-20.727
0
LINE
8
0
10
213.5
20
-20.727
11
213.5
21
-23.5845
0
LINE
8
0
10
194.5
20
-120.7845
11
215.5
21
-120.7845
0
LINE
8
0
10
215.5
20
-120.7845
11
215.5
21
-117.927
0
LINE
8
0
10
194.5
20
-120.7845
11
194.5
21
-23.5845
0
LINE
8
0
10
213.5
20
-23.5845
11
194.5
21
-23.5845
0
LINE
8
0
10
218.4744228
20
-142.2591907
11
238.0687873
21
-138.8041755
0
LINE
8
0
10
238.0687873
20
-138.8041755
11
234.4221755
21
-118.1232127
0
LINE
8
0
10
234.4221755
20
-118.1232127
11
213.7412127
21
-121.7698245
0
LINE
8
0
10
213.7412127
20
-121.7698245
11
215.9325034
21
-134.1972513
0
LINE
8
0
10
201.4419296
20
-150.2015727
11
218.4744228
21
-142.2591907
0
LINE
8
0
10
215.9325034
20
-134.1972513
11
210.5994244
21
-122.7604265
0
LINE
8
0
10
210.5994244
20
-122.7604265
11
191.5669609
21
-131.63541
0
LINE
8
0
10
191.5669609
20
-131.63541
11
196.9000398
21
-143.0722345
0
LINE
8
0
10
186.2002196
20
-162.9908859
11
201.4419296
21
-150.2015727
0
LINE
8
0
10
196.9000398
20
-143.0722345
11
188.7886132
21
-133.4054127
0
LINE
8
0
10
188.7886132
20
-133.4054127
11
172.7016798
21
-146.9039525
0
LINE
8
0
10
172.7016798
20
-146.9039525
11
186.2002196
21
-162.9908859
0
ENDSEC
0
EOF
