0
SECTION
2
HEADER
9
$INSUNITS
70
4
0
ENDSEC
0
SECTION
2
TABLES
0
TABLE
2
LTYPE
0
LTYPE
72
65
70
64
2
CONTINUOUS
3
______
73
0
40
0
0
ENDTAB
0
TABLE
2
LAYER
0
ENDTAB
0
ENDSEC
0
SECTION
2
ENTITIES
0
LINE
8
0
10
15.9
20
-139
11
74.1
21
-139
0
LINE
8
0
10
82
20
-146.9
11
82
21
-147.1
0
LINE
8
0
10
89.9
20
-155
11
109.0129741
21
-155
0
LINE
8
0
10
114.2397847
20
-156.9762806
11
126.7602153
21
-168.0237194
0
LINE
8
0
10
131.9870259
20
-170
11
154.1
21
-170
0
LINE
8
0
10
162
20
-162.1
11
162
21
-15.9
0
LINE
8
0
10
154.1
20
-8
11
52.9
21
-8
0
LINE
8
0
10
45
20
-15.9
11
45
21
-17.1
0
LINE
8
0
10
37.1
20
-25
11
15.9
21
-25
0
LINE
8
0
10
8
20
-32.9
11
8
21
-131.1
0
ARC
8
0
10
74.1
20
-146.9
40
7.9
50
0
51
90
0
ARC
8
0
10
89.9
20
-147.1
40
7.9
50
180
51
270
0
ARC
8
0
10
109.0129741
20
-162.9
40
7.9
50
48.5763377
51
90
0
ARC
8
0
10
131.9870259
20
-162.1
40
7.9
50
228.5763377
51
270
0
ARC
8
0
10
154.1
20
-162.1
40
7.9
50
270
51
0
0
ARC
8
0
10
154.1
20
-15.9
40
7.9
50
0
51
90
0
ARC
8
0
10
52.9
20
-15.9
40
7.9
50
90
51
180
0
ARC
8
0
10
37.1
20
-17.1
40
7.9
50
270
51
0
0
ARC
8
0
10
15.9
20
-32.9
40
7.9
50
90
51
180
0
ARC
8
0
10
15.9
20
-131.1
40
7.9
50
180
51
270
0
LINE
8
0
10
20.9
20
-134
11
79.1
21
-134
0
LINE
8
0
10
87
20
-141.9
11
87
21
-142.1
0
LINE
8
0
10
94.9
20
-150
11
114.0129741
21
-150
0
LINE
8
0
10
119.2397847
20
-151.9762806
11
131.7602153
21
-163.0237194
0
LINE
8
0
10
136.9870259
20
-165
11
149.1
21
-165
0
LINE
8
0
10
157
20
-157.1
11
157
21
-20.9
0
LINE
8
0
10
149.1
20
-13
11
57.9
21
-13
0
LINE
8
0
10
50
20
-20.9
11
50
21
-22.1
0
LINE
8
0
10
42.1
20
-30
11
20.9
21
-30
0
LINE
8
0
10
13
20
-37.9
11
13
21
-126.1
0
ARC
8
0
10
79.1
20
-141.9
40
7.9
50
0
51
90
0
ARC
8
0
10
94.9
20
-142.1
40
7.9
50
180
51
270
0
ARC
8
0
10
114.0129741
20
-157.9
40
7.9
50
48.5763377
51
90
0
ARC
8
0
10
136.9870259
20
-157.1
40
7.9
50
228.5763377
51
270
0
ARC
8
0
10
149.1
20
-157.1
40
7.9
50
270
51
0
0
ARC
8
0
10
149.1
20
-20.9
40
7.9
50
0
51
90
0
ARC
8
0
10
57.9
20
-20.9
40
7.9
50
90
51
180
0
ARC
8
0
10
42.1
20
-22.1
40
7.9
50
270
51
0
0
ARC
8
0
10
20.9
20
-37.9
40
7.9
50
90
51
180
0
ARC
8
0
10
20.9
20
-126.1
40
7.9
50
180
51
270
0
CIRCLE
8
0
10
51
20
-30.8
40
3.7
0
CIRCLE
8
0
10
122
20
-19.0845
40
4
0
CIRCLE
8
0
10
143.5
20
-62.6845
40
4
0
CIRCLE
8
0
10
65
20
-125.427
40
4
0
CIRCLE
8
0
10
100.633541
20
-144.4216049
40
4
0
CIRCLE
8
0
10
143.5
20
-107.2845
40
4
0
CIRCLE
8
0
10
51
20
-30.8
40
2.2
0
CIRCLE
8
0
10
122
20
-19.0845
40
2.2
0
CIRCLE
8
0
10
143.5
20
-62.6845
40
2.2
0
CIRCLE
8
0
10
65
20
-125.427
40
2.2
0
CIRCLE
8
0
10
100.633541
20
-144.4216049
40
2.2
0
CIRCLE
8
0
10
143.5
20
-107.2845
40
2.2
0
LINE
8
0
10
17.75
20
-129.25
11
36.25
21
-129.25
0
LINE
8
0
10
36.25
20
-129.25
11
36.25
21
-110.75
0
LINE
8
0
10
36.25
20
-110.75
11
17.75
21
-110.75
0
LINE
8
0
10
17.75
20
-110.75
11
17.75
21
-129.25
0
LINE
8
0
10
17.75
20
-110.2
11
36.25
21
-110.2
0
LINE
8
0
10
36.25
20
-110.2
11
36.25
21
-91.7
0
LINE
8
0
10
36.25
20
-91.7
11
17.75
21
-91.7
0
LINE
8
0
10
17.75
20
-91.7
11
17.75
21
-110.2
0
LINE
8
0
10
17.75
20
-91.15
11
36.25
21
-91.15
0
LINE
8
0
10
36.25
20
-91.15
11
36.25
21
-72.65
0
LINE
8
0
10
36.25
20
-72.65
11
17.75
21
-72.65
0
LINE
8
0
10
17.75
20
-72.65
11
17.75
21
-91.15
0
LINE
8
0
10
17.75
20
-72.1
11
36.25
21
-72.1
0
LINE
8
0
10
36.25
20
-72.1
11
36.25
21
-53.6
0
LINE
8
0
10
36.25
20
-53.6
11
17.75
21
-53.6
0
LINE
8
0
10
17.75
20
-53.6
11
17.75
21
-72.1
0
LINE
8
0
10
17.75
20
-53.05
11
36.25
21
-53.05
0
LINE
8
0
10
36.25
20
-53.05
11
36.25
21
-34.55
0
LINE
8
0
10
36.25
20
-34.55
11
17.75
21
-34.55
0
LINE
8
0
10
17.75
20
-34.55
11
17.75
21
-53.05
0
LINE
8
0
10
36.75
20
-129.25
11
55.25
21
-129.25
0
LINE
8
0
10
55.25
20
-129.25
11
55.25
21
-110.75
0
LINE
8
0
10
55.25
20
-110.75
11
36.75
21
-110.75
0
LINE
8
0
10
36.75
20
-110.75
11
36.75
21
-129.25
0
LINE
8
0
10
36.75
20
-110.2
11
55.25
21
-110.2
0
LINE
8
0
10
55.25
20
-110.2
11
55.25
21
-91.7
0
LINE
8
0
10
55.25
20
-91.7
11
36.75
21
-91.7
0
LINE
8
0
10
36.75
20
-91.7
11
36.75
21
-110.2
0
LINE
8
0
10
36.75
20
-91.15
11
55.25
21
-91.15
0
LINE
8
0
10
55.25
20
-91.15
11
55.25
21
-72.65
0
LINE
8
0
10
55.25
20
-72.65
11
36.75
21
-72.65
0
LINE
8
0
10
36.75
20
-72.65
11
36.75
21
-91.15
0
LINE
8
0
10
36.75
20
-72.1
11
55.25
21
-72.1
0
LINE
8
0
10
55.25
20
-72.1
11
55.25
21
-53.6
0
LINE
8
0
10
55.25
20
-53.6
11
36.75
21
-53.6
0
LINE
8
0
10
36.75
20
-53.6
11
36.75
21
-72.1
0
LINE
8
0
10
36.75
20
-53.05
11
55.25
21
-53.05
0
LINE
8
0
10
55.25
20
-53.05
11
55.25
21
-34.55
0
LINE
8
0
10
55.25
20
-34.55
11
36.75
21
-34.55
0
LINE
8
0
10
36.75
20
-34.55
11
36.75
21
-53.05
0
LINE
8
0
10
55.75
20
-116.677
11
74.25
21
-116.677
0
LINE
8
0
10
74.25
20
-116.677
11
74.25
21
-98.177
0
LINE
8
0
10
74.25
20
-98.177
11
55.75
21
-98.177
0
LINE
8
0
10
55.75
20
-98.177
11
55.75
21
-116.677
0
LINE
8
0
10
55.75
20
-97.627
11
74.25
21
-97.627
0
LINE
8
0
10
74.25
20
-97.627
11
74.25
21
-79.127
0
LINE
8
0
10
74.25
20
-79.127
11
55.75
21
-79.127
0
LINE
8
0
10
55.75
20
-79.127
11
55.75
21
-97.627
0
LINE
8
0
10
55.75
20
-78.577
11
74.25
21
-78.577
0
LINE
8
0
10
74.25
20
-78.577
11
74.25
21
-60.077
0
LINE
8
0
10
74.25
20
-60.077
11
55.75
21
-60.077
0
LINE
8
0
10
55.75
20
-60.077
11
55.75
21
-78.577
0
LINE
8
0
10
55.75
20
-59.527
11
74.25
21
-59.527
0
LINE
8
0
10
74.25
20
-59.527
11
74.25
21
-41.027
0
LINE
8
0
10
74.25
20
-41.027
11
55.75
21
-41.027
0
LINE
8
0
10
55.75
20
-41.027
11
55.75
21
-59.527
0
LINE
8
0
10
55.75
20
-40.477
11
74.25
21
-40.477
0
LINE
8
0
10
74.25
20
-40.477
11
74.25
21
-21.977
0
LINE
8
0
10
74.25
20
-21.977
11
55.75
21
-21.977
0
LINE
8
0
10
55.75
20
-21.977
11
55.75
21
-40.477
0
LINE
8
0
10
74.75
20
-111.9145
11
93.25
21
-111.9145
0
LINE
8
0
10
93.25
20
-111.9145
11
93.25
21
-93.4145
0
LINE
8
0
10
93.25
20
-93.4145
11
74.75
21
-93.4145
0
LINE
8
0
10
74.75
20
-93.4145
11
74.75
21
-111.9145
0
LINE
8
0
10
74.75
20
-92.8645
11
93.25
21
-92.8645
0
LINE
8
0
10
93.25
20
-92.8645
11
93.25
21
-74.3645
0
LINE
8
0
10
93.25
20
-74.3645
11
74.75
21
-74.3645
0
LINE
8
0
10
74.75
20
-74.3645
11
74.75
21
-92.8645
0
LINE
8
0
10
74.75
20
-73.8145
11
93.25
21
-73.8145
0
LINE
8
0
10
93.25
20
-73.8145
11
93.25
21
-55.3145
0
LINE
8
0
10
93.25
20
-55.3145
11
74.75
21
-55.3145
0
LINE
8
0
10
74.75
20
-55.3145
11
74.75
21
-73.8145
0
LINE
8
0
10
74.75
20
-54.7645
11
93.25
21
-54.7645
0
LINE
8
0
10
93.25
20
-54.7645
11
93.25
21
-36.2645
0
LINE
8
0
10
93.25
20
-36.2645
11
74.75
21
-36.2645
0
LINE
8
0
10
74.75
20
-36.2645
11
74.75
21
-54.7645
0
LINE
8
0
10
74.75
20
-35.7145
11
93.25
21
-35.7145
0
LINE
8
0
10
93.25
20
-35.7145
11
93.25
21
-17.2145
0
LINE
8
0
10
93.25
20
-17.2145
11
74.75
21
-17.2145
0
LINE
8
0
10
74.75
20
-17.2145
11
74.75
21
-35.7145
0
LINE
8
0
10
93.75
20
-116.677
11
112.25
21
-116.677
0
LINE
8
0
10
112.25
20
-116.677
11
112.25
21
-98.177
0
LINE
8
0
10
112.25
20
-98.177
11
93.75
21
-98.177
0
LINE
8
0
10
93.75
20
-98.177
11
93.75
21
-116.677
0
LINE
8
0
10
93.75
20
-97.627
11
112.25
21
-97.627
0
LINE
8
0
10
112.25
20
-97.627
11
112.25
21
-79.127
0
LINE
8
0
10
112.25
20
-79.127
11
93.75
21
-79.127
0
LINE
8
0
10
93.75
20
-79.127
11
93.75
21
-97.627
0
LINE
8
0
10
93.75
20
-78.577
11
112.25
21
-78.577
0
LINE
8
0
10
112.25
20
-78.577
11
112.25
21
-60.077
0
LINE
8
0
10
112.25
20
-60.077
11
93.75
21
-60.077
0
LINE
8
0
10
93.75
20
-60.077
11
93.75
21
-78.577
0
LINE
8
0
10
93.75
20
-59.527
11
112.25
21
-59.527
0
LINE
8
0
10
112.25
20
-59.527
11
112.25
21
-41.027
0
LINE
8
0
10
112.25
20
-41.027
11
93.75
21
-41.027
0
LINE
8
0
10
93.75
20
-41.027
11
93.75
21
-59.527
0
LINE
8
0
10
93.75
20
-40.477
11
112.25
21
-40.477
0
LINE
8
0
10
112.25
20
-40.477
11
112.25
21
-21.977
0
LINE
8
0
10
112.25
20
-21.977
11
93.75
21
-21.977
0
LINE
8
0
10
93.75
20
-21.977
11
93.75
21
-40.477
0
LINE
8
0
10
112.75
20
-119.5345
11
131.25
21
-119.5345
0
LINE
8
0
10
131.25
20
-119.5345
11
131.25
21
-101.0345
0
LINE
8
0
10
131.25
20
-101.0345
11
112.75
21
-101.0345
0
LINE
8
0
10
112.75
20
-101.0345
11
112.75
21
-119.5345
0
LINE
8
0
10
112.75
20
-100.4845
11
131.25
21
-100.4845
0
LINE
8
0
10
131.25
20
-100.4845
11
131.25
21
-81.9845
0
LINE
8
0
10
131.25
20
-81.9845
11
112.75
21
-81.9845
0
LINE
8
0
10
112.75
20
-81.9845
11
112.75
21
-100.4845
0
LINE
8
0
10
112.75
20
-81.4345
11
131.25
21
-81.4345
0
LINE
8
0
10
131.25
20
-81.4345
11
131.25
21
-62.9345
0
LINE
8
0
10
131.25
20
-62.9345
11
112.75
21
-62.9345
0
LINE
8
0
10
112.75
20
-62.9345
11
112.75
21
-81.4345
0
LINE
8
0
10
112.75
20
-62.3845
11
131.25
21
-62.3845
0
LINE
8
0
10
131.25
20
-62.3845
11
131.25
21
-43.8845
0
LINE
8
0
10
131.25
20
-43.8845
11
112.75
21
-43.8845
0
LINE
8
0
10
112.75
20
-43.8845
11
112.75
21
-62.3845
0
LINE
8
0
10
112.75
20
-43.3345
11
131.25
21
-43.3345
0
LINE
8
0
10
131.25
20
-43.3345
11
131.25
21
-24.8345
0
LINE
8
0
10
131.25
20
-24.8345
11
112.75
21
-24.8345
0
LINE
8
0
10
112.75
20
-24.8345
11
112.75
21
-43.3345
0
LINE
8
0
10
90.3792826
20
-137.7902261
11
108.5982261
21
-141.0027174
0
LINE
8
0
10
108.5982261
20
-141.0027174
11
111.8107174
21
-122.7837739
0
LINE
8
0
10
111.8107174
20
-122.7837739
11
93.5917739
21
-119.5712826
0
LINE
8
0
10
93.5917739
20
-119.5712826
11
90.3792826
21
-137.7902261
0
LINE
8
0
10
109.1867496
20
-141.1882781
11
125.9534437
21
-149.006716
0
LINE
8
0
10
125.9534437
20
-149.006716
11
133.7718816
21
-132.2400219
0
LINE
8
0
10
133.7718816
20
-132.2400219
11
117.0051875
21
-124.421584
0
LINE
8
0
10
117.0051875
20
-124.421584
11
109.1867496
21
-141.1882781
0
LINE
8
0
10
126.4738871
20
-149.338275
11
140.6457093
21
-161.2298458
0
LINE
8
0
10
140.6457093
20
-161.2298458
11
152.5372801
21
-147.0580236
0
LINE
8
0
10
152.5372801
20
-147.0580236
11
138.3654579
21
-135.1664528
0
LINE
8
0
10
138.3654579
20
-135.1664528
11
126.4738871
21
-149.338275
0
LINE
8
0
10
135
20
-15.8
11
153
21
-15.8
0
LINE
8
0
10
153
20
-15.8
11
153
21
-50.8
0
LINE
8
0
10
153
20
-50.8
11
135
21
-50.8
0
LINE
8
0
10
135
20
-50.8
11
135
21
-15.8
0
ENDSEC
0
EOF