0
SECTION
2
HEADER
9
$INSUNITS
70
4
0
ENDSEC
0
SECTION
2
TABLES
0
TABLE
2
LTYPE
0
LTYPE
72
65
70
64
2
CONTINUOUS
3
______
73
0
40
0
0
ENDTAB
0
TABLE
2
LAYER
0
ENDTAB
0
ENDSEC
0
SECTION
2
ENTITIES
0
LINE
8
0
10
18
20
-111
11
36
21
-111
0
LINE
8
0
10
36
20
-111
11
36
21
-129
0
LINE
8
0
10
36
20
-129
11
18
21
-129
0
LINE
8
0
10
18
20
-129
11
18
21
-111
0
LINE
8
0
10
18
20
-91.95
11
36
21
-91.95
0
LINE
8
0
10
36
20
-91.95
11
36
21
-109.95
0
LINE
8
0
10
36
20
-109.95
11
18
21
-109.95
0
LINE
8
0
10
18
20
-109.95
11
18
21
-91.95
0
LINE
8
0
10
18
20
-72.9
11
36
21
-72.9
0
LINE
8
0
10
36
20
-72.9
11
36
21
-90.9
0
LINE
8
0
10
36
20
-90.9
11
18
21
-90.9
0
LINE
8
0
10
18
20
-90.9
11
18
21
-72.9
0
LINE
8
0
10
18
20
-53.85
11
36
21
-53.85
0
LINE
8
0
10
36
20
-53.85
11
36
21
-71.85
0
LINE
8
0
10
36
20
-71.85
11
18
21
-71.85
0
LINE
8
0
10
18
20
-71.85
11
18
21
-53.85
0
LINE
8
0
10
18
20
-34.8
11
36
21
-34.8
0
LINE
8
0
10
36
20
-34.8
11
36
21
-52.8
0
LINE
8
0
10
36
20
-52.8
11
18
21
-52.8
0
LINE
8
0
10
18
20
-52.8
11
18
21
-34.8
0
LINE
8
0
10
37
20
-111
11
55
21
-111
0
LINE
8
0
10
55
20
-111
11
55
21
-129
0
LINE
8
0
10
55
20
-129
11
37
21
-129
0
LINE
8
0
10
37
20
-129
11
37
21
-111
0
LINE
8
0
10
37
20
-91.95
11
55
21
-91.95
0
LINE
8
0
10
55
20
-91.95
11
55
21
-109.95
0
LINE
8
0
10
55
20
-109.95
11
37
21
-109.95
0
LINE
8
0
10
37
20
-109.95
11
37
21
-91.95
0
LINE
8
0
10
37
20
-72.9
11
55
21
-72.9
0
LINE
8
0
10
55
20
-72.9
11
55
21
-90.9
0
LINE
8
0
10
55
20
-90.9
11
37
21
-90.9
0
LINE
8
0
10
37
20
-90.9
11
37
21
-72.9
0
LINE
8
0
10
37
20
-53.85
11
55
21
-53.85
0
LINE
8
0
10
55
20
-53.85
11
55
21
-71.85
0
LINE
8
0
10
55
20
-71.85
11
37
21
-71.85
0
LINE
8
0
10
37
20
-71.85
11
37
21
-53.85
0
LINE
8
0
10
37
20
-34.8
11
55
21
-34.8
0
LINE
8
0
10
55
20
-34.8
11
55
21
-52.8
0
LINE
8
0
10
55
20
-52.8
11
37
21
-52.8
0
LINE
8
0
10
37
20
-52.8
11
37
21
-34.8
0
LINE
8
0
10
56
20
-98.427
11
74
21
-98.427
0
LINE
8
0
10
74
20
-98.427
11
74
21
-116.427
0
LINE
8
0
10
74
20
-116.427
11
56
21
-116.427
0
LINE
8
0
10
56
20
-116.427
11
56
21
-98.427
0
LINE
8
0
10
56
20
-79.377
11
74
21
-79.377
0
LINE
8
0
10
74
20
-79.377
11
74
21
-97.377
0
LINE
8
0
10
74
20
-97.377
11
56
21
-97.377
0
LINE
8
0
10
56
20
-97.377
11
56
21
-79.377
0
LINE
8
0
10
56
20
-60.327
11
74
21
-60.327
0
LINE
8
0
10
74
20
-60.327
11
74
21
-78.327
0
LINE
8
0
10
74
20
-78.327
11
56
21
-78.327
0
LINE
8
0
10
56
20
-78.327
11
56
21
-60.327
0
LINE
8
0
10
56
20
-41.277
11
74
21
-41.277
0
LINE
8
0
10
74
20
-41.277
11
74
21
-59.277
0
LINE
8
0
10
74
20
-59.277
11
56
21
-59.277
0
LINE
8
0
10
56
20
-59.277
11
56
21
-41.277
0
LINE
8
0
10
56
20
-22.227
11
74
21
-22.227
0
LINE
8
0
10
74
20
-22.227
11
74
21
-40.227
0
LINE
8
0
10
74
20
-40.227
11
56
21
-40.227
0
LINE
8
0
10
56
20
-40.227
11
56
21
-22.227
0
LINE
8
0
10
75
20
-93.6645
11
93
21
-93.6645
0
LINE
8
0
10
93
20
-93.6645
11
93
21
-111.6645
0
LINE
8
0
10
93
20
-111.6645
11
75
21
-111.6645
0
LINE
8
0
10
75
20
-111.6645
11
75
21
-93.6645
0
LINE
8
0
10
75
20
-74.6145
11
93
21
-74.6145
0
LINE
8
0
10
93
20
-74.6145
11
93
21
-92.6145
0
LINE
8
0
10
93
20
-92.6145
11
75
21
-92.6145
0
LINE
8
0
10
75
20
-92.6145
11
75
21
-74.6145
0
LINE
8
0
10
75
20
-55.5645
11
93
21
-55.5645
0
LINE
8
0
10
93
20
-55.5645
11
93
21
-73.5645
0
LINE
8
0
10
93
20
-73.5645
11
75
21
-73.5645
0
LINE
8
0
10
75
20
-73.5645
11
75
21
-55.5645
0
LINE
8
0
10
75
20
-36.5145
11
93
21
-36.5145
0
LINE
8
0
10
93
20
-36.5145
11
93
21
-54.5145
0
LINE
8
0
10
93
20
-54.5145
11
75
21
-54.5145
0
LINE
8
0
10
75
20
-54.5145
11
75
21
-36.5145
0
LINE
8
0
10
75
20
-17.4645
11
93
21
-17.4645
0
LINE
8
0
10
93
20
-17.4645
11
93
21
-35.4645
0
LINE
8
0
10
93
20
-35.4645
11
75
21
-35.4645
0
LINE
8
0
10
75
20
-35.4645
11
75
21
-17.4645
0
LINE
8
0
10
94
20
-98.427
11
112
21
-98.427
0
LINE
8
0
10
112
20
-98.427
11
112
21
-116.427
0
LINE
8
0
10
112
20
-116.427
11
94
21
-116.427
0
LINE
8
0
10
94
20
-116.427
11
94
21
-98.427
0
LINE
8
0
10
94
20
-79.377
11
112
21
-79.377
0
LINE
8
0
10
112
20
-79.377
11
112
21
-97.377
0
LINE
8
0
10
112
20
-97.377
11
94
21
-97.377
0
LINE
8
0
10
94
20
-97.377
11
94
21
-79.377
0
LINE
8
0
10
94
20
-60.327
11
112
21
-60.327
0
LINE
8
0
10
112
20
-60.327
11
112
21
-78.327
0
LINE
8
0
10
112
20
-78.327
11
94
21
-78.327
0
LINE
8
0
10
94
20
-78.327
11
94
21
-60.327
0
LINE
8
0
10
94
20
-41.277
11
112
21
-41.277
0
LINE
8
0
10
112
20
-41.277
11
112
21
-59.277
0
LINE
8
0
10
112
20
-59.277
11
94
21
-59.277
0
LINE
8
0
10
94
20
-59.277
11
94
21
-41.277
0
LINE
8
0
10
94
20
-22.227
11
112
21
-22.227
0
LINE
8
0
10
112
20
-22.227
11
112
21
-40.227
0
LINE
8
0
10
112
20
-40.227
11
94
21
-40.227
0
LINE
8
0
10
94
20
-40.227
11
94
21
-22.227
0
LINE
8
0
10
113
20
-101.2845
11
131
21
-101.2845
0
LINE
8
0
10
131
20
-101.2845
11
131
21
-119.2845
0
LINE
8
0
10
131
20
-119.2845
11
113
21
-119.2845
0
LINE
8
0
10
113
20
-119.2845
11
113
21
-101.2845
0
LINE
8
0
10
113
20
-82.2345
11
131
21
-82.2345
0
LINE
8
0
10
131
20
-82.2345
11
131
21
-100.2345
0
LINE
8
0
10
131
20
-100.2345
11
113
21
-100.2345
0
LINE
8
0
10
113
20
-100.2345
11
113
21
-82.2345
0
LINE
8
0
10
113
20
-63.1845
11
131
21
-63.1845
0
LINE
8
0
10
131
20
-63.1845
11
131
21
-81.1845
0
LINE
8
0
10
131
20
-81.1845
11
113
21
-81.1845
0
LINE
8
0
10
113
20
-81.1845
11
113
21
-63.1845
0
LINE
8
0
10
113
20
-44.1345
11
131
21
-44.1345
0
LINE
8
0
10
131
20
-44.1345
11
131
21
-62.1345
0
LINE
8
0
10
131
20
-62.1345
11
113
21
-62.1345
0
LINE
8
0
10
113
20
-62.1345
11
113
21
-44.1345
0
LINE
8
0
10
113
20
-25.0845
11
131
21
-25.0845
0
LINE
8
0
10
131
20
-25.0845
11
131
21
-43.0845
0
LINE
8
0
10
131
20
-43.0845
11
113
21
-43.0845
0
LINE
8
0
10
113
20
-43.0845
11
113
21
-25.0845
0
LINE
8
0
10
93.7945638
20
-119.8608966
11
111.5211034
21
-122.9865638
0
LINE
8
0
10
111.5211034
20
-122.9865638
11
108.3954362
21
-140.7131034
0
LINE
8
0
10
108.3954362
20
-140.7131034
11
90.6688966
21
-137.5874362
0
LINE
8
0
10
90.6688966
20
-137.5874362
11
93.7945638
21
-119.8608966
0
LINE
8
0
10
117.1261099
20
-124.7538156
11
133.43965
21
-132.3609443
0
LINE
8
0
10
133.43965
20
-132.3609443
11
125.8325213
21
-148.6744844
0
LINE
8
0
10
125.8325213
20
-148.6744844
11
109.5189812
21
-141.0673557
0
LINE
8
0
10
109.5189812
20
-141.0673557
11
117.1261099
21
-124.7538156
0
LINE
8
0
10
138.3962721
20
-135.5186608
11
152.1850721
21
-147.0888378
0
LINE
8
0
10
152.1850721
20
-147.0888378
11
140.6148951
21
-160.8776378
0
LINE
8
0
10
140.6148951
20
-160.8776378
11
126.8260951
21
-149.3074608
0
LINE
8
0
10
126.8260951
20
-149.3074608
11
138.3962721
21
-135.5186608
0
LINE
8
0
10
291
20
-111
11
309
21
-111
0
LINE
8
0
10
309
20
-111
11
309
21
-129
0
LINE
8
0
10
309
20
-129
11
291
21
-129
0
LINE
8
0
10
291
20
-129
11
291
21
-111
0
LINE
8
0
10
291
20
-91.95
11
309
21
-91.95
0
LINE
8
0
10
309
20
-91.95
11
309
21
-109.95
0
LINE
8
0
10
309
20
-109.95
11
291
21
-109.95
0
LINE
8
0
10
291
20
-109.95
11
291
21
-91.95
0
LINE
8
0
10
291
20
-72.9
11
309
21
-72.9
0
LINE
8
0
10
309
20
-72.9
11
309
21
-90.9
0
LINE
8
0
10
309
20
-90.9
11
291
21
-90.9
0
LINE
8
0
10
291
20
-90.9
11
291
21
-72.9
0
LINE
8
0
10
291
20
-53.85
11
309
21
-53.85
0
LINE
8
0
10
309
20
-53.85
11
309
21
-71.85
0
LINE
8
0
10
309
20
-71.85
11
291
21
-71.85
0
LINE
8
0
10
291
20
-71.85
11
291
21
-53.85
0
LINE
8
0
10
291
20
-34.8
11
309
21
-34.8
0
LINE
8
0
10
309
20
-34.8
11
309
21
-52.8
0
LINE
8
0
10
309
20
-52.8
11
291
21
-52.8
0
LINE
8
0
10
291
20
-52.8
11
291
21
-34.8
0
LINE
8
0
10
272
20
-111
11
290
21
-111
0
LINE
8
0
10
290
20
-111
11
290
21
-129
0
LINE
8
0
10
290
20
-129
11
272
21
-129
0
LINE
8
0
10
272
20
-129
11
272
21
-111
0
LINE
8
0
10
272
20
-91.95
11
290
21
-91.95
0
LINE
8
0
10
290
20
-91.95
11
290
21
-109.95
0
LINE
8
0
10
290
20
-109.95
11
272
21
-109.95
0
LINE
8
0
10
272
20
-109.95
11
272
21
-91.95
0
LINE
8
0
10
272
20
-72.9
11
290
21
-72.9
0
LINE
8
0
10
290
20
-72.9
11
290
21
-90.9
0
LINE
8
0
10
290
20
-90.9
11
272
21
-90.9
0
LINE
8
0
10
272
20
-90.9
11
272
21
-72.9
0
LINE
8
0
10
272
20
-53.85
11
290
21
-53.85
0
LINE
8
0
10
290
20
-53.85
11
290
21
-71.85
0
LINE
8
0
10
290
20
-71.85
11
272
21
-71.85
0
LINE
8
0
10
272
20
-71.85
11
272
21
-53.85
0
LINE
8
0
10
272
20
-34.8
11
290
21
-34.8
0
LINE
8
0
10
290
20
-34.8
11
290
21
-52.8
0
LINE
8
0
10
290
20
-52.8
11
272
21
-52.8
0
LINE
8
0
10
272
20
-52.8
11
272
21
-34.8
0
LINE
8
0
10
253
20
-98.427
11
271
21
-98.427
0
LINE
8
0
10
271
20
-98.427
11
271
21
-116.427
0
LINE
8
0
10
271
20
-116.427
11
253
21
-116.427
0
LINE
8
0
10
253
20
-116.427
11
253
21
-98.427
0
LINE
8
0
10
253
20
-79.377
11
271
21
-79.377
0
LINE
8
0
10
271
20
-79.377
11
271
21
-97.377
0
LINE
8
0
10
271
20
-97.377
11
253
21
-97.377
0
LINE
8
0
10
253
20
-97.377
11
253
21
-79.377
0
LINE
8
0
10
253
20
-60.327
11
271
21
-60.327
0
LINE
8
0
10
271
20
-60.327
11
271
21
-78.327
0
LINE
8
0
10
271
20
-78.327
11
253
21
-78.327
0
LINE
8
0
10
253
20
-78.327
11
253
21
-60.327
0
LINE
8
0
10
253
20
-41.277
11
271
21
-41.277
0
LINE
8
0
10
271
20
-41.277
11
271
21
-59.277
0
LINE
8
0
10
271
20
-59.277
11
253
21
-59.277
0
LINE
8
0
10
253
20
-59.277
11
253
21
-41.277
0
LINE
8
0
10
253
20
-22.227
11
271
21
-22.227
0
LINE
8
0
10
271
20
-22.227
11
271
21
-40.227
0
LINE
8
0
10
271
20
-40.227
11
253
21
-40.227
0
LINE
8
0
10
253
20
-40.227
11
253
21
-22.227
0
LINE
8
0
10
234
20
-93.6645
11
252
21
-93.6645
0
LINE
8
0
10
252
20
-93.6645
11
252
21
-111.6645
0
LINE
8
0
10
252
20
-111.6645
11
234
21
-111.6645
0
LINE
8
0
10
234
20
-111.6645
11
234
21
-93.6645
0
LINE
8
0
10
234
20
-74.6145
11
252
21
-74.6145
0
LINE
8
0
10
252
20
-74.6145
11
252
21
-92.6145
0
LINE
8
0
10
252
20
-92.6145
11
234
21
-92.6145
0
LINE
8
0
10
234
20
-92.6145
11
234
21
-74.6145
0
LINE
8
0
10
234
20
-55.5645
11
252
21
-55.5645
0
LINE
8
0
10
252
20
-55.5645
11
252
21
-73.5645
0
LINE
8
0
10
252
20
-73.5645
11
234
21
-73.5645
0
LINE
8
0
10
234
20
-73.5645
11
234
21
-55.5645
0
LINE
8
0
10
234
20
-36.5145
11
252
21
-36.5145
0
LINE
8
0
10
252
20
-36.5145
11
252
21
-54.5145
0
LINE
8
0
10
252
20
-54.5145
11
234
21
-54.5145
0
LINE
8
0
10
234
20
-54.5145
11
234
21
-36.5145
0
LINE
8
0
10
234
20
-17.4645
11
252
21
-17.4645
0
LINE
8
0
10
252
20
-17.4645
11
252
21
-35.4645
0
LINE
8
0
10
252
20
-35.4645
11
234
21
-35.4645
0
LINE
8
0
10
234
20
-35.4645
11
234
21
-17.4645
0
LINE
8
0
10
215
20
-98.427
11
233
21
-98.427
0
LINE
8
0
10
233
20
-98.427
11
233
21
-116.427
0
LINE
8
0
10
233
20
-116.427
11
215
21
-116.427
0
LINE
8
0
10
215
20
-116.427
11
215
21
-98.427
0
LINE
8
0
10
215
20
-79.377
11
233
21
-79.377
0
LINE
8
0
10
233
20
-79.377
11
233
21
-97.377
0
LINE
8
0
10
233
20
-97.377
11
215
21
-97.377
0
LINE
8
0
10
215
20
-97.377
11
215
21
-79.377
0
LINE
8
0
10
215
20
-60.327
11
233
21
-60.327
0
LINE
8
0
10
233
20
-60.327
11
233
21
-78.327
0
LINE
8
0
10
233
20
-78.327
11
215
21
-78.327
0
LINE
8
0
10
215
20
-78.327
11
215
21
-60.327
0
LINE
8
0
10
215
20
-41.277
11
233
21
-41.277
0
LINE
8
0
10
233
20
-41.277
11
233
21
-59.277
0
LINE
8
0
10
233
20
-59.277
11
215
21
-59.277
0
LINE
8
0
10
215
20
-59.277
11
215
21
-41.277
0
LINE
8
0
10
215
20
-22.227
11
233
21
-22.227
0
LINE
8
0
10
233
20
-22.227
11
233
21
-40.227
0
LINE
8
0
10
233
20
-40.227
11
215
21
-40.227
0
LINE
8
0
10
215
20
-40.227
11
215
21
-22.227
0
LINE
8
0
10
196
20
-101.2845
11
214
21
-101.2845
0
LINE
8
0
10
214
20
-101.2845
11
214
21
-119.2845
0
LINE
8
0
10
214
20
-119.2845
11
196
21
-119.2845
0
LINE
8
0
10
196
20
-119.2845
11
196
21
-101.2845
0
LINE
8
0
10
196
20
-82.2345
11
214
21
-82.2345
0
LINE
8
0
10
214
20
-82.2345
11
214
21
-100.2345
0
LINE
8
0
10
214
20
-100.2345
11
196
21
-100.2345
0
LINE
8
0
10
196
20
-100.2345
11
196
21
-82.2345
0
LINE
8
0
10
196
20
-63.1845
11
214
21
-63.1845
0
LINE
8
0
10
214
20
-63.1845
11
214
21
-81.1845
0
LINE
8
0
10
214
20
-81.1845
11
196
21
-81.1845
0
LINE
8
0
10
196
20
-81.1845
11
196
21
-63.1845
0
LINE
8
0
10
196
20
-44.1345
11
214
21
-44.1345
0
LINE
8
0
10
214
20
-44.1345
11
214
21
-62.1345
0
LINE
8
0
10
214
20
-62.1345
11
196
21
-62.1345
0
LINE
8
0
10
196
20
-62.1345
11
196
21
-44.1345
0
LINE
8
0
10
196
20
-25.0845
11
214
21
-25.0845
0
LINE
8
0
10
214
20
-25.0845
11
214
21
-43.0845
0
LINE
8
0
10
214
20
-43.0845
11
196
21
-43.0845
0
LINE
8
0
10
196
20
-43.0845
11
196
21
-25.0845
0
LINE
8
0
10
215.4788966
20
-122.9865638
11
233.2054362
21
-119.8608966
0
LINE
8
0
10
233.2054362
20
-119.8608966
11
236.3311034
21
-137.5874362
0
LINE
8
0
10
236.3311034
20
-137.5874362
11
218.6045638
21
-140.7131034
0
LINE
8
0
10
218.6045638
20
-140.7131034
11
215.4788966
21
-122.9865638
0
LINE
8
0
10
193.56035
20
-132.3609443
11
209.8738901
21
-124.7538156
0
LINE
8
0
10
209.8738901
20
-124.7538156
11
217.4810188
21
-141.0673557
0
LINE
8
0
10
217.4810188
20
-141.0673557
11
201.1674787
21
-148.6744844
0
LINE
8
0
10
201.1674787
20
-148.6744844
11
193.56035
21
-132.3609443
0
LINE
8
0
10
174.8149279
20
-147.0888378
11
188.6037279
21
-135.5186608
0
LINE
8
0
10
188.6037279
20
-135.5186608
11
200.1739049
21
-149.3074608
0
LINE
8
0
10
200.1739049
20
-149.3074608
11
186.3851049
21
-160.8776378
0
LINE
8
0
10
186.3851049
20
-160.8776378
11
174.8149279
21
-147.0888378
0
ENDSEC
0
EOF